<svg width="1357" height="1480" xmlns="http://www.w3.org/2000/svg" xmlns:xlink="http://www.w3.org/1999/xlink" xml:space="preserve" overflow="hidden"><g transform="translate(-796 -345)"><path d="M1412.5 681.5 1527.76 845.891" stroke="#BFBFBF" stroke-width="4.58333" stroke-linecap="square" stroke-miterlimit="8" stroke-dasharray="13.75 4.58333" fill="none" fill-rule="evenodd"/><path d="M0 0 319.656 12.2317" stroke="#BFBFBF" stroke-width="4.58333" stroke-linecap="square" stroke-miterlimit="8" stroke-dasharray="13.75 4.58333" fill="none" fill-rule="evenodd" transform="matrix(1 0 0 -1 1013.5 1294.73)"/><path d="M3.7834-2.58705 102.815 142.241 95.2487 147.415-3.7834 2.58705ZM99.2293 97.4184 104.359 152.619 54.7807 127.812C52.517 126.679 51.6001 123.926 52.7328 121.662 53.8655 119.398 56.6188 118.481 58.8826 119.614L101.083 140.729 94.4684 145.252 90.102 98.2666C89.8678 95.7461 91.7211 93.513 94.2416 93.2788 96.762 93.0446 98.9951 94.8979 99.2293 97.4184Z" fill="#7F7F7F" transform="matrix(1 0 0 -1 1649.5 1694.12)"/><path d="M1790.37 1528.22 1492.92 1424.93 1495.92 1416.27 1793.38 1519.56ZM1522.45 1458.83 1485.5 1417.5 1540.12 1407.97C1542.61 1407.53 1544.98 1409.2 1545.42 1411.69 1545.85 1414.19 1544.19 1416.56 1541.69 1417L1495.21 1425.11 1497.84 1417.54 1529.29 1452.72C1530.97 1454.61 1530.81 1457.51 1528.92 1459.2 1527.04 1460.88 1524.14 1460.72 1522.45 1458.83Z" fill="#7F7F7F"/><path d="M1448.54 1407.28 1027.71 1313.04 1029.72 1304.09 1450.55 1398.33ZM1060.91 1343.36 1019.5 1306.5 1072.68 1290.82C1075.11 1290.1 1077.65 1291.49 1078.37 1293.92 1079.09 1296.35 1077.7 1298.89 1075.27 1299.61L1030.01 1312.96 1031.76 1305.14 1067.01 1336.52C1068.9 1338.2 1069.07 1341.1 1067.38 1342.99 1065.7 1344.88 1062.8 1345.05 1060.91 1343.36Z" fill="#7F7F7F"/><path d="M1728 1514.5C1728 1493.24 1745.24 1476 1766.5 1476 1787.76 1476 1805 1493.24 1805 1514.5 1805 1535.76 1787.76 1553 1766.5 1553 1745.24 1553 1728 1535.76 1728 1514.5Z" fill="#BFBFBF" fill-rule="evenodd"/><path d="M2.27372-3.97959 166.68 89.9533 162.133 97.9124-2.27372 3.97959ZM143.879 51.1969 172.601 98.6147 117.167 97.9503C114.635 97.92 112.608 95.8435 112.638 93.3124 112.669 90.7813 114.745 88.754 117.276 88.7843L164.461 89.3499 160.486 96.3074 136.038 55.946C134.727 53.7809 135.419 50.9626 137.584 49.6512 139.749 48.3397 142.568 49.0318 143.879 51.1969Z" fill="#7F7F7F" transform="matrix(1 0 0 -1 999.5 1286.12)"/><path d="M1.45207-4.34723 336.659 107.619 333.755 116.313-1.45207 4.34723ZM306.722 74.0662 344.158 114.956 289.663 125.139C287.175 125.604 284.781 123.964 284.316 121.475 283.851 118.987 285.491 116.593 287.979 116.128L334.365 107.461 331.826 115.061 299.961 80.2562C298.252 78.3891 298.38 75.49 300.247 73.7806 302.114 72.0713 305.013 72.1992 306.722 74.0662Z" fill="#7F7F7F" transform="matrix(1 0 0 -1 1177.5 1180.46)"/><path d="M1543.4 1043.34 1423.39 709.937 1432.01 706.833 1552.02 1040.23ZM1415.58 754.22 1424.5 699.504 1466.25 735.983C1468.15 737.649 1468.35 740.544 1466.68 742.45 1465.02 744.356 1462.12 744.551 1460.21 742.885L1424.68 711.835 1432.22 709.121 1424.63 755.695C1424.22 758.193 1421.87 759.888 1419.37 759.481 1416.87 759.074 1415.18 756.718 1415.58 754.22Z" fill="#7F7F7F"/><path d="M0 0 400.666 8.09554" stroke="#BFBFBF" stroke-width="4.58333" stroke-linecap="square" stroke-miterlimit="8" stroke-dasharray="13.75 4.58333" fill="none" fill-rule="evenodd" transform="matrix(1 0 0 -1 1329.5 1525.6)"/><path d="M0 0 123.149 2.72257" stroke="#BFBFBF" stroke-width="4.58333" stroke-linecap="square" stroke-miterlimit="8" stroke-dasharray="13.75 4.58333" fill="none" fill-rule="evenodd" transform="matrix(1 0 0 -1 1345.5 1408.22)"/><path d="M1308.87 1404.89 1305.1 1207.03 1314.26 1206.85 1318.04 1404.72ZM1322.62 1404.63C1322.72 1409.69 1318.69 1413.88 1313.63 1413.97 1308.57 1414.07 1304.39 1410.04 1304.29 1404.98 1304.19 1399.92 1308.22 1395.74 1313.28 1395.64 1318.34 1395.55 1322.52 1399.57 1322.62 1404.63ZM1283.51 1246.47 1309.5 1197.5 1337.34 1245.44C1338.61 1247.63 1337.87 1250.44 1335.68 1251.71 1333.49 1252.98 1330.69 1252.24 1329.42 1250.05L1305.72 1209.24 1313.73 1209.09 1291.6 1250.77C1290.42 1253 1287.64 1253.85 1285.4 1252.67 1283.17 1251.48 1282.32 1248.71 1283.51 1246.47Z" fill="#D9D9D9"/><path d="M1761.93 748.611 1923.5 849.385 1918.64 857.162 1757.07 756.389ZM1902.21 809.777 1929.08 858.268 1873.71 855.466C1871.18 855.338 1869.24 853.184 1869.37 850.656 1869.49 848.128 1871.65 846.183 1874.17 846.311L1921.3 848.696 1917.06 855.495 1894.19 814.221C1892.96 812.007 1893.76 809.217 1895.98 807.99 1898.19 806.763 1900.98 807.563 1902.21 809.777Z" fill="#7F7F7F"/><path d="M1436.26 498.845 1752.85 738.306 1747.33 745.617 1430.73 506.156ZM1735.21 696.948 1757.62 747.655 1702.73 739.893C1700.22 739.539 1698.47 737.22 1698.83 734.713 1699.18 732.207 1701.5 730.462 1704.01 730.817L1750.73 737.424 1745.9 743.815 1726.82 700.653C1725.8 698.338 1726.85 695.632 1729.16 694.608 1731.48 693.585 1734.19 694.633 1735.21 696.948Z" fill="#7F7F7F"/><path d="M4.57729-0.235292 11.4793 134.034 2.32475 134.505-4.57729 0.235292ZM31.7864 93.915 7.38654 143.695-21.989 96.6793C-23.3303 94.5326-22.6774 91.705-20.5306 90.3637-18.3839 89.0224-15.5563 89.6753-14.215 91.8221L10.789 131.841 2.7865 132.253 23.5553 89.8805C24.6694 87.6076 27.4152 86.6681 29.6881 87.7822 31.9611 88.8963 32.9005 91.6421 31.7864 93.915Z" fill="#7F7F7F" transform="matrix(1 0 0 -1 1417.5 673.199)"/><path d="M0 0 172.57 4.99547" stroke="#BFBFBF" stroke-width="4.58333" stroke-linecap="square" stroke-miterlimit="8" stroke-dasharray="13.75 4.58333" fill="none" fill-rule="evenodd" transform="matrix(1 0 0 -1 1190.5 1176.5)"/><path d="M1433.5 523.5 1636.08 762.936" stroke="#BFBFBF" stroke-width="4.58333" stroke-linecap="square" stroke-miterlimit="8" stroke-dasharray="13.75 4.58333" fill="none" fill-rule="evenodd"/><path d="M1445.5 992.5 1547.54 1046.11" stroke="#BFBFBF" stroke-width="4.58333" stroke-linecap="square" stroke-miterlimit="8" stroke-dasharray="13.75 4.58333" fill="none" fill-rule="evenodd"/><path d="M4.04199-2.16086 86.4293 151.949 78.3453 156.27-4.04199 2.16086ZM-8.08397 4.32171C-10.4708-0.142938-8.78637-5.69715-4.32171-8.08397 0.142938-10.4708 5.69715-8.78637 8.08397-4.32171 10.4708 0.142938 8.78637 5.69715 4.32171 8.08397-0.142938 10.4708-5.69715 8.78637-8.08397 4.32171ZM87.7322 107.001 86.8368 162.432 40.2457 132.388C38.1184 131.016 37.5059 128.179 38.8777 126.052 40.2496 123.925 43.0862 123.312 45.2136 124.684L84.8712 150.257 77.8046 154.035 78.5667 106.853C78.6076 104.322 80.6925 102.304 83.2235 102.344 85.7545 102.385 87.7731 104.47 87.7322 107.001Z" fill="#D9D9D9" transform="matrix(1 0 0 -1 1440.5 987.936)"/><path d="M2.71934-3.68946 150.982 105.589 145.543 112.968-2.71934 3.68946ZM-5.43869 7.37892C-9.51395 4.37522-10.3826-1.36342-7.37892-5.43869-4.37522-9.51395 1.36342-10.3826 5.43869-7.37892 9.51395-4.37522 10.3826 1.36342 7.37892 5.43869 4.37522 9.51395-1.36342 10.3826-5.43869 7.37892ZM132.823 64.4522 155.86 114.878 100.875 107.797C98.3648 107.474 96.5917 105.177 96.915 102.666 97.2383 100.155 99.5356 98.3823 102.046 98.7055L148.848 104.732 144.094 111.183 124.485 68.2613C123.433 65.9589 124.447 63.2397 126.75 62.1879 129.052 61.136 131.771 62.1498 132.823 64.4522Z" fill="#D9D9D9" transform="matrix(1 0 0 -1 1635.5 771.38)"/><path d="M1712.5 706.5 1717.11 713.557" stroke="#BFBFBF" stroke-width="4.58333" stroke-linecap="square" stroke-miterlimit="8" stroke-dasharray="13.75 4.58333" fill="none" fill-rule="evenodd"/><path d="M1313.37 1281.85 1308.17 1086.06 1317.33 1085.82 1322.54 1281.61ZM1327.12 1281.48C1327.25 1286.55 1323.26 1290.76 1318.2 1290.89 1313.14 1291.03 1308.93 1287.03 1308.79 1281.97 1308.66 1276.91 1312.65 1272.7 1317.71 1272.56 1322.77 1272.43 1326.98 1276.42 1327.12 1281.48ZM1286.87 1125.66 1312.5 1076.5 1340.7 1124.23C1341.99 1126.41 1341.27 1129.22 1339.09 1130.51 1336.91 1131.8 1334.1 1131.08 1332.81 1128.9L1308.8 1088.27 1316.82 1088.06 1295 1129.9C1293.83 1132.15 1291.06 1133.02 1288.82 1131.85 1286.58 1130.68 1285.7 1127.91 1286.87 1125.66Z" fill="#D9D9D9"/><path d="M1416 1400C1416 1379.01 1433.24 1362 1454.5 1362 1475.76 1362 1493 1379.01 1493 1400 1493 1420.99 1475.76 1438 1454.5 1438 1433.24 1438 1416 1420.99 1416 1400Z" fill="#BFBFBF" fill-rule="evenodd"/><path d="M948 1297.5C948 1276.24 965.237 1259 986.5 1259 1007.76 1259 1025 1276.24 1025 1297.5 1025 1318.76 1007.76 1336 986.5 1336 965.237 1336 948 1318.76 948 1297.5Z" fill="#BFBFBF" fill-rule="evenodd"/><path d="M1162 1167.5C1162 1146.24 1179.24 1129 1200.5 1129 1221.76 1129 1239 1146.24 1239 1167.5 1239 1188.76 1221.76 1206 1200.5 1206 1179.24 1206 1162 1188.76 1162 1167.5Z" fill="#BFBFBF" fill-rule="evenodd"/><path d="M1513 1053.5C1513 1032.24 1530.01 1015 1551 1015 1571.99 1015 1589 1032.24 1589 1053.5 1589 1074.76 1571.99 1092 1551 1092 1530.01 1092 1513 1074.76 1513 1053.5Z" fill="#BFBFBF" fill-rule="evenodd"/><path d="M1379 666C1379 645.013 1396.01 628 1417 628 1437.99 628 1455 645.013 1455 666 1455 686.987 1437.99 704 1417 704 1396.01 704 1379 686.987 1379 666Z" fill="#BFBFBF" fill-rule="evenodd"/><path d="M1391 499C1391 478.013 1408.24 461 1429.5 461 1450.76 461 1468 478.013 1468 499 1468 519.987 1450.76 537 1429.5 537 1408.24 537 1391 519.987 1391 499Z" fill="#BFBFBF" fill-rule="evenodd"/><path d="M1744 760C1744 739.013 1761.24 722 1782.5 722 1803.76 722 1821 739.013 1821 760 1821 780.987 1803.76 798 1782.5 798 1761.24 798 1744 780.987 1744 760Z" fill="#BFBFBF" fill-rule="evenodd"/><path d="M1322 1034 1322 1315.86" stroke="#FF9200" stroke-width="13.75" stroke-linecap="square" stroke-miterlimit="8" stroke-dasharray="41.25 13.75" fill="none" fill-rule="evenodd"/><text font-family="Aptos,Aptos_MSFontService,sans-serif" font-weight="700" font-size="92" transform="matrix(1 0 0 1 1234.2 940)">A</text><text font-family="Aptos,Aptos_MSFontService,sans-serif" font-weight="700" font-size="61" transform="matrix(1 0 0 1 1290.92 962)">i</text><text font-family="Aptos,Aptos_MSFontService,sans-serif" font-weight="700" font-size="61" transform="matrix(1 0 0 1 1307.54 962)">+</text><text font-family="Aptos,Aptos_MSFontService,sans-serif" font-weight="700" font-size="61" transform="matrix(1 0 0 1 1340.19 962)">3</text><text font-family="Aptos,Aptos_MSFontService,sans-serif" font-weight="700" font-size="92" transform="matrix(1 0 0 1 1190.63 1471)">A</text><text font-family="Aptos,Aptos_MSFontService,sans-serif" font-weight="700" font-size="61" transform="matrix(1 0 0 1 1247.35 1493)">i</text><path d="M1625 1668.5C1625 1647.24 1642.01 1630 1663 1630 1683.99 1630 1701 1647.24 1701 1668.5 1701 1689.76 1683.99 1707 1663 1707 1642.01 1707 1625 1689.76 1625 1668.5Z" fill="#BFBFBF" fill-rule="evenodd"/><text fill="#BFBFBF" font-family="Aptos,Aptos_MSFontService,sans-serif" font-style="italic" font-weight="400" font-size="83" transform="matrix(1 0 0 1 1686.27 1752)">c</text><text fill="#BFBFBF" font-family="Aptos,Aptos_MSFontService,sans-serif" font-style="italic" font-weight="400" font-size="55" transform="matrix(1 0 0 1 1729.81 1772)">i</text><text fill="#BFBFBF" font-family="Aptos,Aptos_MSFontService,sans-serif" font-style="italic" font-weight="400" font-size="83" transform="matrix(1 0 0 1 1801.45 1572)">c</text><text fill="#BFBFBF" font-family="Aptos,Aptos_MSFontService,sans-serif" font-style="italic" font-weight="400" font-size="55" transform="matrix(1 0 0 1 1844.99 1592)">i+1</text><text fill="#BFBFBF" font-family="Aptos,Aptos_MSFontService,sans-serif" font-style="italic" font-weight="400" font-size="83" transform="matrix(1 0 0 1 1475.41 1371)">c</text><text fill="#BFBFBF" font-family="Aptos,Aptos_MSFontService,sans-serif" font-style="italic" font-weight="400" font-size="55" transform="matrix(1 0 0 1 1518.95 1391)">i+2</text><text fill="#BFBFBF" font-family="Aptos,Aptos_MSFontService,sans-serif" font-style="italic" font-weight="400" font-size="83" transform="matrix(1 0 0 1 845.502 1238)">c</text><text fill="#BFBFBF" font-family="Aptos,Aptos_MSFontService,sans-serif" font-style="italic" font-weight="400" font-size="55" transform="matrix(1 0 0 1 889.044 1258)">i+</text><text fill="#BFBFBF" font-family="Aptos,Aptos_MSFontService,sans-serif" font-style="italic" font-weight="400" font-size="55" transform="matrix(1 0 0 1 930.867 1258)">3</text><text fill="#BFBFBF" font-family="Aptos,Aptos_MSFontService,sans-serif" font-style="italic" font-weight="400" font-size="83" transform="matrix(1 0 0 1 1091.87 1098)">c</text><text fill="#BFBFBF" font-family="Aptos,Aptos_MSFontService,sans-serif" font-style="italic" font-weight="400" font-size="55" transform="matrix(1 0 0 1 1135.41 1118)">i+4</text><text fill="#BFBFBF" font-family="Aptos,Aptos_MSFontService,sans-serif" font-style="italic" font-weight="400" font-size="83" transform="matrix(1 0 0 1 1560.71 1129)">c</text><text fill="#BFBFBF" font-family="Aptos,Aptos_MSFontService,sans-serif" font-style="italic" font-weight="400" font-size="55" transform="matrix(1 0 0 1 1604.26 1149)">i+5</text><text fill="#BFBFBF" font-family="Aptos,Aptos_MSFontService,sans-serif" font-style="italic" font-weight="400" font-size="83" transform="matrix(1 0 0 1 1250.43 689)">c</text><text fill="#BFBFBF" font-family="Aptos,Aptos_MSFontService,sans-serif" font-style="italic" font-weight="400" font-size="55" transform="matrix(1 0 0 1 1293.97 709)">i+6</text><text fill="#BFBFBF" font-family="Aptos,Aptos_MSFontService,sans-serif" font-style="italic" font-weight="400" font-size="83" transform="matrix(1 0 0 1 1283.33 446)">c</text><text fill="#BFBFBF" font-family="Aptos,Aptos_MSFontService,sans-serif" font-style="italic" font-weight="400" font-size="55" transform="matrix(1 0 0 1 1326.87 466)">i+7</text><text fill="#BFBFBF" font-family="Aptos,Aptos_MSFontService,sans-serif" font-style="italic" font-weight="400" font-size="83" transform="matrix(1 0 0 1 1821.43 748)">c</text><text fill="#BFBFBF" font-family="Aptos,Aptos_MSFontService,sans-serif" font-style="italic" font-weight="400" font-size="55" transform="matrix(1 0 0 1 1864.97 768)">i+8</text><path d="M2.47277-3.85906 166.414 101.19 161.469 108.908-2.47277 3.85906ZM-4.94553 7.71813C-9.20814 4.98678-10.4495-0.68293-7.71813-4.94553-4.98678-9.20814 0.68293-10.4495 4.94553-7.71813 9.20814-4.98678 10.4495 0.68293 7.71813 4.94553 4.98678 9.20814-0.68293 10.4495-4.94553 7.71813ZM145.61 61.3259 171.888 110.14 116.559 106.663C114.032 106.505 112.113 104.328 112.272 101.802 112.431 99.2753 114.607 97.356 117.134 97.5148L164.229 100.474 159.906 107.221 137.538 65.671C136.338 63.4421 137.172 60.6626 139.401 59.4627 141.63 58.2629 144.41 59.097 145.61 61.3259Z" fill="#D9D9D9" transform="matrix(1 0 0 -1 1528.5 851.643)"/><path d="M0 0 48.7537 288.335" stroke="#FF9200" stroke-width="13.75" stroke-linecap="square" stroke-miterlimit="8" stroke-dasharray="41.25 13.75" fill="none" fill-rule="evenodd" transform="matrix(-1 0 0 1 1377.75 1167)"/><path d="M1317.57 1523.47 1313.33 1320.69 1329.37 1320.35 1333.61 1523.13ZM1341.63 1522.96C1341.82 1531.82 1334.79 1539.15 1325.93 1539.34 1317.07 1539.52 1309.74 1532.49 1309.55 1523.64 1309.37 1514.78 1316.4 1507.45 1325.26 1507.26 1334.11 1507.08 1341.45 1514.11 1341.63 1522.96ZM1275.67 1389.78 1321 1304.01 1369.88 1387.81C1372.11 1391.64 1370.82 1396.55 1366.99 1398.78 1363.17 1401.01 1358.26 1399.72 1356.02 1395.89L1314.42 1324.56 1328.44 1324.27 1289.85 1397.28C1287.78 1401.19 1282.93 1402.69 1279.01 1400.62 1275.1 1398.55 1273.6 1393.7 1275.67 1389.78Z"/><path d="M7.85097-1.64197 55.8863 228.036 40.1844 231.32-7.85097 1.64197ZM-15.7019 3.28394C-17.5156-5.388-11.9559-13.8883-3.28394-15.7019 5.388-17.5156 13.8883-11.9559 15.7019-3.28394 17.5156 5.388 11.9559 13.8883 3.28394 15.7019-5.388 17.5156-13.8883 11.9559-15.7019 3.28394ZM80.1728 153.187 51.4164 245.844-12.0628 172.477C-14.9613 169.127-14.5953 164.062-11.2453 161.164-7.89541 158.265-2.83011 158.631 0.0683398 161.981L54.1009 224.43 40.3749 227.301 64.8521 148.432C66.1651 144.201 70.6592 141.836 74.8899 143.149 79.1206 144.462 81.4859 148.956 80.1728 153.187Z" transform="matrix(1 0 0 -1 1378 1169.85)"/><text fill="#FF9200" font-family="Aptos,Aptos_MSFontService,sans-serif" font-style="italic" font-weight="700" font-size="165" transform="matrix(1 0 0 1 1387.43 1271)">β</text><path d="M1324.6 1222.24C1339.57 1216.98 1358.31 1219.2 1370.97 1227.75" stroke="#FF9200" stroke-width="13.75" stroke-miterlimit="8" fill="none" fill-rule="evenodd"/><path d="M1922 862.5C1922 841.237 1939.24 824 1960.5 824 1981.76 824 1999 841.237 1999 862.5 1999 883.763 1981.76 901 1960.5 901 1939.24 901 1922 883.763 1922 862.5Z" fill="#BFBFBF" fill-rule="evenodd"/><text fill="#BFBFBF" font-family="Aptos,Aptos_MSFontService,sans-serif" font-style="italic" font-weight="400" font-size="83" transform="matrix(1 0 0 1 2003.78 856)">c</text><text fill="#BFBFBF" font-family="Aptos,Aptos_MSFontService,sans-serif" font-style="italic" font-weight="400" font-size="55" transform="matrix(1 0 0 1 2047.32 876)">i+9</text></g></svg>