<svg width="1051" height="1376" xmlns="http://www.w3.org/2000/svg" xmlns:xlink="http://www.w3.org/1999/xlink" xml:space="preserve" overflow="hidden"><defs><clipPath id="clip0"><rect x="948" y="461" width="1051" height="1376"/></clipPath></defs><g clip-path="url(#clip0)" transform="translate(-948 -461)"><path d="M1412.5 681.5 1527.76 845.891" stroke="#BFBFBF" stroke-width="4.58333" stroke-linecap="square" stroke-miterlimit="8" stroke-dasharray="13.75 4.58333" fill="none" fill-rule="evenodd"/><path d="M0 0 319.656 12.2317" stroke="#BFBFBF" stroke-width="4.58333" stroke-linecap="square" stroke-miterlimit="8" stroke-dasharray="13.75 4.58333" fill="none" fill-rule="evenodd" transform="matrix(1 0 0 -1 1013.5 1294.73)"/><path d="M3.7834-2.58705 102.815 142.241 95.2487 147.415-3.7834 2.58705ZM99.2293 97.4184 104.359 152.619 54.7807 127.812C52.517 126.679 51.6001 123.926 52.7328 121.662 53.8655 119.398 56.6188 118.481 58.8826 119.614L101.083 140.729 94.4684 145.252 90.102 98.2666C89.8678 95.7461 91.7211 93.513 94.2416 93.2788 96.762 93.0446 98.9951 94.8979 99.2293 97.4184Z" fill="#7F7F7F" transform="matrix(1 0 0 -1 1649.5 1694.12)"/><path d="M1790.37 1528.22 1492.92 1424.93 1495.92 1416.27 1793.38 1519.56ZM1522.45 1458.83 1485.5 1417.5 1540.12 1407.97C1542.61 1407.53 1544.98 1409.2 1545.42 1411.69 1545.85 1414.19 1544.19 1416.56 1541.69 1417L1495.21 1425.11 1497.84 1417.54 1529.29 1452.72C1530.97 1454.61 1530.81 1457.51 1528.92 1459.2 1527.04 1460.88 1524.14 1460.72 1522.45 1458.83Z" fill="#7F7F7F"/><path d="M1448.54 1407.28 1027.71 1313.04 1029.72 1304.09 1450.55 1398.33ZM1060.91 1343.36 1019.5 1306.5 1072.68 1290.82C1075.11 1290.1 1077.65 1291.49 1078.37 1293.92 1079.09 1296.35 1077.7 1298.89 1075.27 1299.61L1030.01 1312.96 1031.76 1305.14 1067.01 1336.52C1068.9 1338.2 1069.07 1341.1 1067.38 1342.99 1065.7 1344.88 1062.8 1345.05 1060.91 1343.36Z" fill="#7F7F7F"/><path d="M1728 1514.5C1728 1493.24 1745.24 1476 1766.5 1476 1787.76 1476 1805 1493.24 1805 1514.5 1805 1535.76 1787.76 1553 1766.5 1553 1745.24 1553 1728 1535.76 1728 1514.5Z" fill="#BFBFBF" fill-rule="evenodd"/><path d="M2.27372-3.97959 166.68 89.9533 162.133 97.9124-2.27372 3.97959ZM143.879 51.1969 172.601 98.6147 117.167 97.9503C114.635 97.92 112.608 95.8435 112.638 93.3124 112.669 90.7813 114.745 88.754 117.276 88.7843L164.461 89.3499 160.486 96.3074 136.038 55.946C134.727 53.7809 135.419 50.9626 137.584 49.6512 139.749 48.3397 142.568 49.0318 143.879 51.1969Z" fill="#7F7F7F" transform="matrix(1 0 0 -1 999.5 1286.12)"/><path d="M1.45207-4.34723 336.659 107.619 333.755 116.313-1.45207 4.34723ZM306.722 74.0662 344.158 114.956 289.663 125.139C287.175 125.604 284.781 123.964 284.316 121.475 283.851 118.987 285.491 116.593 287.979 116.128L334.365 107.461 331.826 115.061 299.961 80.2562C298.252 78.3891 298.38 75.49 300.247 73.7806 302.114 72.0713 305.013 72.1992 306.722 74.0662Z" fill="#7F7F7F" transform="matrix(1 0 0 -1 1177.5 1180.46)"/><path d="M1543.4 1043.34 1423.39 709.937 1432.01 706.833 1552.02 1040.23ZM1415.58 754.22 1424.5 699.504 1466.25 735.983C1468.15 737.649 1468.35 740.544 1466.68 742.45 1465.02 744.356 1462.12 744.551 1460.21 742.885L1424.68 711.835 1432.22 709.121 1424.63 755.695C1424.22 758.193 1421.87 759.888 1419.37 759.481 1416.87 759.074 1415.18 756.718 1415.58 754.22Z" fill="#7F7F7F"/><path d="M0 0 400.666 8.09554" stroke="#BFBFBF" stroke-width="4.58333" stroke-linecap="square" stroke-miterlimit="8" stroke-dasharray="13.75 4.58333" fill="none" fill-rule="evenodd" transform="matrix(1 0 0 -1 1329.5 1525.6)"/><path d="M0 0 123.149 2.72257" stroke="#BFBFBF" stroke-width="4.58333" stroke-linecap="square" stroke-miterlimit="8" stroke-dasharray="13.75 4.58333" fill="none" fill-rule="evenodd" transform="matrix(1 0 0 -1 1322.5 1410.22)"/><path d="M1761.93 748.611 1923.5 849.385 1918.64 857.162 1757.07 756.389ZM1902.21 809.777 1929.08 858.268 1873.71 855.466C1871.18 855.338 1869.24 853.184 1869.37 850.656 1869.49 848.128 1871.65 846.183 1874.17 846.311L1921.3 848.696 1917.06 855.495 1894.19 814.221C1892.96 812.007 1893.76 809.217 1895.98 807.99 1898.19 806.763 1900.98 807.563 1902.21 809.777Z" fill="#7F7F7F"/><path d="M1436.26 498.845 1752.85 738.306 1747.33 745.617 1430.73 506.156ZM1735.21 696.948 1757.62 747.655 1702.73 739.893C1700.22 739.539 1698.47 737.22 1698.83 734.713 1699.18 732.207 1701.5 730.462 1704.01 730.817L1750.73 737.424 1745.9 743.815 1726.82 700.653C1725.8 698.338 1726.85 695.632 1729.16 694.608 1731.48 693.585 1734.19 694.633 1735.21 696.948Z" fill="#7F7F7F"/><path d="M4.57729-0.235292 11.4793 134.034 2.32475 134.505-4.57729 0.235292ZM31.7864 93.915 7.38654 143.695-21.989 96.6793C-23.3303 94.5326-22.6774 91.705-20.5306 90.3637-18.3839 89.0224-15.5563 89.6753-14.215 91.8221L10.789 131.841 2.7865 132.253 23.5553 89.8805C24.6694 87.6076 27.4152 86.6681 29.6881 87.7822 31.9611 88.8963 32.9005 91.6421 31.7864 93.915Z" fill="#7F7F7F" transform="matrix(1 0 0 -1 1417.5 673.199)"/><path d="M0 0 172.57 4.99547" stroke="#BFBFBF" stroke-width="4.58333" stroke-linecap="square" stroke-miterlimit="8" stroke-dasharray="13.75 4.58333" fill="none" fill-rule="evenodd" transform="matrix(1 0 0 -1 1190.5 1176.5)"/><path d="M1433.5 523.5 1636.08 762.936" stroke="#BFBFBF" stroke-width="4.58333" stroke-linecap="square" stroke-miterlimit="8" stroke-dasharray="13.75 4.58333" fill="none" fill-rule="evenodd"/><path d="M1433.5 986.5 1537.58 1041.17" stroke="#BFBFBF" stroke-width="4.58333" stroke-linecap="square" stroke-miterlimit="8" stroke-dasharray="13.75 4.58333" fill="none" fill-rule="evenodd"/><path d="M1712.5 706.5 1717.11 713.557" stroke="#BFBFBF" stroke-width="4.58333" stroke-linecap="square" stroke-miterlimit="8" stroke-dasharray="13.75 4.58333" fill="none" fill-rule="evenodd"/><path d="M1416 1400C1416 1379.01 1433.24 1362 1454.5 1362 1475.76 1362 1493 1379.01 1493 1400 1493 1420.99 1475.76 1438 1454.5 1438 1433.24 1438 1416 1420.99 1416 1400Z" fill="#BFBFBF" fill-rule="evenodd"/><path d="M948 1297.5C948 1276.24 965.237 1259 986.5 1259 1007.76 1259 1025 1276.24 1025 1297.5 1025 1318.76 1007.76 1336 986.5 1336 965.237 1336 948 1318.76 948 1297.5Z" fill="#BFBFBF" fill-rule="evenodd"/><path d="M1162 1167.5C1162 1146.24 1179.24 1129 1200.5 1129 1221.76 1129 1239 1146.24 1239 1167.5 1239 1188.76 1221.76 1206 1200.5 1206 1179.24 1206 1162 1188.76 1162 1167.5Z" fill="#BFBFBF" fill-rule="evenodd"/><path d="M1513 1053.5C1513 1032.24 1530.01 1015 1551 1015 1571.99 1015 1589 1032.24 1589 1053.5 1589 1074.76 1571.99 1092 1551 1092 1530.01 1092 1513 1074.76 1513 1053.5Z" fill="#BFBFBF" fill-rule="evenodd"/><path d="M1379 666C1379 645.013 1396.01 628 1417 628 1437.99 628 1455 645.013 1455 666 1455 686.987 1437.99 704 1417 704 1396.01 704 1379 686.987 1379 666Z" fill="#BFBFBF" fill-rule="evenodd"/><path d="M1391 499C1391 478.013 1408.24 461 1429.5 461 1450.76 461 1468 478.013 1468 499 1468 519.987 1450.76 537 1429.5 537 1408.24 537 1391 519.987 1391 499Z" fill="#BFBFBF" fill-rule="evenodd"/><path d="M1744 760C1744 739.013 1761.24 722 1782.5 722 1803.76 722 1821 739.013 1821 760 1821 780.987 1803.76 798 1782.5 798 1761.24 798 1744 780.987 1744 760Z" fill="#BFBFBF" fill-rule="evenodd"/><path d="M1625 1668.5C1625 1647.24 1642.01 1630 1663 1630 1683.99 1630 1701 1647.24 1701 1668.5 1701 1689.76 1683.99 1707 1663 1707 1642.01 1707 1625 1689.76 1625 1668.5Z" fill="#BFBFBF" fill-rule="evenodd"/><path d="M1922 862.5C1922 841.237 1939.24 824 1960.5 824 1981.76 824 1999 841.237 1999 862.5 1999 883.763 1981.76 901 1960.5 901 1939.24 901 1922 883.763 1922 862.5Z" fill="#BFBFBF" fill-rule="evenodd"/><path d="M1307 1524.5C1307 1512.63 1316.85 1503 1329 1503 1341.15 1503 1351 1512.63 1351 1524.5 1351 1536.37 1341.15 1546 1329 1546 1316.85 1546 1307 1536.37 1307 1524.5Z" fill-rule="evenodd"/><path d="M1287 1412.5C1287 1400.63 1296.85 1391 1309 1391 1321.15 1391 1331 1400.63 1331 1412.5 1331 1424.37 1321.15 1434 1309 1434 1296.85 1434 1287 1424.37 1287 1412.5Z" fill-rule="evenodd"/><path d="M1299 1279C1299 1266.85 1308.63 1257 1320.5 1257 1332.37 1257 1342 1266.85 1342 1279 1342 1291.15 1332.37 1301 1320.5 1301 1308.63 1301 1299 1291.15 1299 1279Z" fill-rule="evenodd"/><path d="M1356 1170C1356 1157.85 1365.63 1148 1377.5 1148 1389.37 1148 1399 1157.85 1399 1170 1399 1182.15 1389.37 1192 1377.5 1192 1365.63 1192 1356 1182.15 1356 1170Z" fill-rule="evenodd"/><path d="M1411 982.5C1411 970.626 1420.85 961 1433 961 1445.15 961 1455 970.626 1455 982.5 1455 994.374 1445.15 1004 1433 1004 1420.85 1004 1411 994.374 1411 982.5Z" fill-rule="evenodd"/><path d="M1507 847C1507 834.85 1516.85 825 1529 825 1541.15 825 1551 834.85 1551 847 1551 859.15 1541.15 869 1529 869 1516.85 869 1507 859.15 1507 847Z" fill-rule="evenodd"/><path d="M1618 769.5C1618 757.626 1627.63 748 1639.5 748 1651.37 748 1661 757.626 1661 769.5 1661 781.374 1651.37 791 1639.5 791 1627.63 791 1618 781.374 1618 769.5Z" fill-rule="evenodd"/><text font-family="Aptos,Aptos_MSFontService,sans-serif" font-style="italic" font-weight="400" font-size="83" transform="matrix(1 0 0 1 1197.6 946)">origins</text><path d="M8.28189-3.92913 577.351 1195.57 560.787 1203.42-8.28189 3.92913ZM584.268 1105.91 577.164 1216.56 486.97 1152.07C482.852 1149.13 481.9 1143.4 484.845 1139.28 487.789 1135.16 493.515 1134.21 497.633 1137.16L574.405 1192.05 559.925 1198.92 565.973 1104.73C566.297 1099.68 570.655 1095.85 575.708 1096.17 580.76 1096.5 584.593 1100.86 584.268 1105.91Z" fill="#FF9200" transform="matrix(-1 0 0 1 1739.17 523)"/><text fill="#FF9200" font-family="Aptos,Aptos_MSFontService,sans-serif" font-weight="700" font-size="147" transform="matrix(1 0 0 1 1108.63 1564)">G</text></g></svg>