<svg width="1008" height="588" xmlns="http://www.w3.org/2000/svg" xmlns:xlink="http://www.w3.org/1999/xlink" xml:space="preserve" overflow="hidden"><g transform="translate(-830 -753)"><path d="M1221.5 1025.5 1299.68 1026.49" stroke="#000000" stroke-width="9.16667" stroke-linecap="square" stroke-miterlimit="8" stroke-dasharray="27.5 9.16667" fill="none" fill-rule="evenodd"/><path d="M830 916.5C830 895.237 847.237 878 868.5 878 889.763 878 907 895.237 907 916.5 907 937.763 889.763 955 868.5 955 847.237 955 830 937.763 830 916.5Z" fill="#BFBFBF" fill-rule="evenodd"/><path d="M4.08334-2.08166 55.6429 99.0564 47.4762 103.22-4.08334 2.08166ZM57.8217 54.143 55.8459 109.546 9.84935 78.599C7.74916 77.1859 7.1921 74.3379 8.60514 72.2377 10.0182 70.1375 12.8662 69.5804 14.9664 70.9935L54.1181 97.3352 46.9791 100.975 48.6608 53.8163C48.751 51.2866 50.8749 49.309 53.4046 49.3992 55.9343 49.4894 57.9119 51.6133 57.8217 54.143Z" fill="#7F7F7F" transform="matrix(1 0 0 -1 1570.5 1292.05)"/><path d="M1624.37 1150.22 1326.92 1046.93 1329.92 1038.27 1627.38 1141.56ZM1356.45 1080.83 1319.5 1039.5 1374.12 1029.97C1376.61 1029.53 1378.98 1031.2 1379.42 1033.69 1379.85 1036.19 1378.19 1038.56 1375.69 1039L1329.21 1047.11 1331.84 1039.54 1363.29 1074.72C1364.97 1076.61 1364.81 1079.51 1362.92 1081.19 1361.04 1082.88 1358.14 1082.72 1356.45 1080.83Z" fill="#7F7F7F"/><path d="M1328.54 1036.28 907.714 942.036 909.717 933.091 1330.55 1027.33ZM940.911 972.363 899.504 935.501 952.678 919.818C955.106 919.102 957.655 920.49 958.371 922.918 959.087 925.346 957.699 927.895 955.271 928.611L910.01 941.959 911.761 934.14 947.006 965.517C948.897 967.2 949.065 970.097 947.382 971.988 945.699 973.878 942.802 974.047 940.911 972.363Z" fill="#7F7F7F"/><path d="M1525 1302.5C1525 1281.24 1542.24 1264 1563.5 1264 1584.76 1264 1602 1281.24 1602 1302.5 1602 1323.76 1584.76 1341 1563.5 1341 1542.24 1341 1525 1323.76 1525 1302.5Z" fill="#BFBFBF" fill-rule="evenodd"/><path d="M1605 1147.5C1605 1126.24 1622.01 1109 1643 1109 1663.99 1109 1681 1126.24 1681 1147.5 1681 1168.76 1663.99 1186 1643 1186 1622.01 1186 1605 1168.76 1605 1147.5Z" fill="#BFBFBF" fill-rule="evenodd"/><path d="M1269 1027.5C1269 1006.24 1286.24 989 1307.5 989 1328.76 989 1346 1006.24 1346 1027.5 1346 1048.76 1328.76 1066 1307.5 1066 1286.24 1066 1269 1048.76 1269 1027.5Z" fill="#BFBFBF" fill-rule="evenodd"/><path d="M1233.5 1146.5 1605.61 1151.19" stroke="#000000" stroke-width="9.16667" stroke-linecap="square" stroke-miterlimit="8" stroke-dasharray="27.5 9.16667" fill="none" fill-rule="evenodd"/><text fill="#FF9200" font-family="Aptos,Aptos_MSFontService,sans-serif" font-weight="700" font-size="147" transform="matrix(1 0 0 1 1076.53 1134)">h</text><path d="M6.30208-6.92188e-06 6.30243 315.595-6.30174 315.595-6.30208 6.92188e-06ZM37.0197 261.937 0.000361012 328.572-37.0191 261.937C-38.7094 258.894-37.6132 255.058-34.5707 253.367-31.5282 251.677-27.6914 252.773-26.0011 255.816L5.50936 312.534-5.50867 312.535 26.0017 255.816C27.692 252.773 31.5287 251.677 34.5713 253.367 37.6138 255.058 38.71 258.894 37.0197 261.937Z" transform="matrix(1 0 0 -1 1226.5 1152.08)"/><path d="M1183 1026 1183 1145.4" stroke="#FF9200" stroke-width="13.75" stroke-miterlimit="8" fill="none" fill-rule="evenodd"/><path d="M1165 1146 1201.12 1146" stroke="#FF9200" stroke-width="13.75" stroke-miterlimit="8" fill="none" fill-rule="evenodd"/><path d="M1165 1026 1201.12 1026" stroke="#FF9200" stroke-width="13.75" stroke-miterlimit="8" fill="none" fill-rule="evenodd"/><text fill="#7F7F7F" font-family="Aptos,Aptos_MSFontService,sans-serif" font-weight="700" font-size="110" transform="matrix(1 0 0 1 1473.31 1065)">B</text><text fill="#7F7F7F" font-family="Aptos,Aptos_MSFontService,sans-serif" font-weight="700" font-size="73" transform="matrix(1 0 0 1 1541.49 1092)">2</text><text fill="#BFBFBF" font-family="Aptos,Aptos_MSFontService,sans-serif" font-style="italic" font-weight="400" font-size="92" transform="matrix(1 0 0 1 1672.53 1213)">c</text><text fill="#BFBFBF" font-family="Aptos,Aptos_MSFontService,sans-serif" font-style="italic" font-weight="400" font-size="61" transform="matrix(1 0 0 1 1721.23 1235)">i+1</text><text fill="#BFBFBF" font-family="Aptos,Aptos_MSFontService,sans-serif" font-style="italic" font-weight="400" font-size="92" transform="matrix(1 0 0 1 1238.35 962)">c</text><text fill="#BFBFBF" font-family="Aptos,Aptos_MSFontService,sans-serif" font-style="italic" font-weight="400" font-size="61" transform="matrix(1 0 0 1 1287.05 984)">i+2</text></g></svg>