<svg width="1699" height="2021" xmlns="http://www.w3.org/2000/svg" xmlns:xlink="http://www.w3.org/1999/xlink" xml:space="preserve" overflow="hidden"><g transform="translate(-660 -82)"><path d="M1352.5 1787.5 1430.68 1788.49" stroke="#000000" stroke-width="9.16667" stroke-linecap="square" stroke-miterlimit="8" stroke-dasharray="27.5 9.16667" fill="none" fill-rule="evenodd"/><path d="M0 0 428.113 179.963" stroke="#000000" stroke-width="9.16667" stroke-linecap="square" stroke-miterlimit="8" stroke-dasharray="27.5 9.16667" fill="none" fill-rule="evenodd" transform="matrix(1 0 0 -1 1361.5 1082.46)"/><path d="M0 0 82.7505 454.679" stroke="#000000" stroke-width="9.16667" stroke-linecap="square" stroke-miterlimit="8" stroke-dasharray="27.5 9.16667" fill="none" fill-rule="evenodd" transform="matrix(1 0 0 -1 1358.5 1083.18)"/><path d="M963.5 1052.5C963.5 818.883 1152.88 629.5 1386.5 629.5 1620.12 629.5 1809.5 818.883 1809.5 1052.5 1809.5 1286.12 1620.12 1475.5 1386.5 1475.5 1152.88 1475.5 963.5 1286.12 963.5 1052.5Z" stroke="#D9D9D9" stroke-width="6.875" stroke-miterlimit="8" fill="none" fill-rule="evenodd"/><path d="M4.50926-0.820677 95.4085 498.631 86.39 500.273-4.50926 0.820677ZM110.4 456.239 92.5895 508.739 57.424 465.881C55.8183 463.924 56.103 461.036 58.0599 459.43 60.0168 457.825 62.9048 458.11 64.5105 460.066L94.4428 496.546 86.5592 497.981 101.719 453.294C102.533 450.897 105.135 449.613 107.532 450.427 109.929 451.24 111.213 453.842 110.4 456.239Z" transform="matrix(1 0 0 -1 1435.5 640.243)"/><path d="M1.77612-4.2252 421.188 172.08 417.636 180.531-1.77612 4.2252ZM393.867 136.362 428.109 179.961 373.001 186.001C370.484 186.277 368.221 184.461 367.945 181.944 367.669 179.428 369.486 177.165 372.002 176.889L418.909 171.748 415.804 179.135 386.658 142.024C385.094 140.033 385.441 137.152 387.431 135.589 389.422 134.025 392.303 134.371 393.867 136.362Z" transform="matrix(1 0 0 -1 1779.5 905.463)"/><path d="M4.4842-0.948124 97.1448 437.294 88.1764 439.19-4.4842 0.948124ZM110.929 394.493 94.6129 447.476 58.2471 405.632C56.5866 403.721 56.7894 400.826 58.7 399.166 60.6106 397.505 63.5055 397.708 65.1659 399.619L96.12 435.236 88.2802 436.893 102.168 391.795C102.913 389.376 105.478 388.019 107.897 388.764 110.317 389.509 111.674 392.074 110.929 394.493Z" fill="#7F7F7F" transform="matrix(1 0 0 -1 1679.5 1384.98)"/><path d="M1794.35 933.141 1462.74 652.1 1468.66 645.107 1800.28 926.147ZM1478.07 694.374 1458.5 642.503 1512.88 653.296C1515.36 653.789 1516.98 656.201 1516.48 658.684 1515.99 661.167 1513.58 662.78 1511.1 662.287L1464.81 653.1 1469.99 646.987 1486.64 691.139C1487.54 693.508 1486.34 696.152 1483.97 697.045 1481.6 697.939 1478.96 696.743 1478.07 694.374Z" fill="#7F7F7F"/><path d="M2.25287-3.99143 413.065 227.882 408.559 235.865-2.25287 3.99143ZM390.062 189.245 419.031 236.512 363.594 236.138C361.063 236.121 359.025 234.055 359.042 231.524 359.059 228.993 361.125 226.955 363.656 226.972L410.843 227.29 406.905 234.269 382.246 194.036C380.923 191.877 381.601 189.056 383.759 187.733 385.917 186.41 388.739 187.087 390.062 189.245Z" fill="#7F7F7F" transform="matrix(-1 0 0 1 1450.53 623.5)"/><path d="M1.77612-4.2252 424.767 173.585 421.215 182.036-1.77612 4.2252ZM397.451 137.869 431.693 181.468 376.585 187.508C374.069 187.784 371.805 185.968 371.53 183.452 371.254 180.935 373.07 178.672 375.586 178.396L422.494 173.255 419.388 180.642 390.242 143.531C388.679 141.54 389.025 138.659 391.016 137.096 393.007 135.532 395.888 135.878 397.451 137.869Z" transform="matrix(1 0 0 -1 1779.5 905.97)"/><path d="M1738 908C1738 887.013 1755.01 870 1776 870 1796.99 870 1814 887.013 1814 908 1814 928.987 1796.99 946 1776 946 1755.01 946 1738 928.987 1738 908Z" fill="#BFBFBF" fill-rule="evenodd"/><path d="M1399 626.5C1399 605.237 1416.24 588 1437.5 588 1458.76 588 1476 605.237 1476 626.5 1476 647.763 1458.76 665 1437.5 665 1416.24 665 1399 647.763 1399 626.5Z" fill="#BFBFBF" fill-rule="evenodd"/><path d="M964 869.5C964 848.237 981.013 831 1002 831 1022.99 831 1040 848.237 1040 869.5 1040 890.763 1022.99 908 1002 908 981.013 908 964 890.763 964 869.5Z" fill="#BFBFBF" fill-rule="evenodd"/><path d="M1647 1349C1647 1328.01 1664.24 1311 1685.5 1311 1706.76 1311 1724 1328.01 1724 1349 1724 1369.99 1706.76 1387 1685.5 1387 1664.24 1387 1647 1369.99 1647 1349Z" fill="#BFBFBF" fill-rule="evenodd"/><text font-family="Aptos,Aptos_MSFontService,sans-serif" font-weight="700" font-size="92" transform="matrix(1 0 0 1 1498.55 473)">D</text><text font-family="Aptos,Aptos_MSFontService,sans-serif" font-weight="700" font-size="61" transform="matrix(1 0 0 1 1563.29 495)">2</text><text font-family="Aptos,Aptos_MSFontService,sans-serif" font-weight="700" font-size="92" transform="matrix(1 0 0 1 1961.24 933)">D</text><text font-family="Aptos,Aptos_MSFontService,sans-serif" font-weight="700" font-size="61" transform="matrix(1 0 0 1 2025.98 955)">1</text><text fill="#BFBFBF" font-family="Aptos,Aptos_MSFontService,sans-serif" font-style="italic" font-weight="400" font-size="92" transform="matrix(1 0 0 1 1817.69 968)">c</text><text fill="#BFBFBF" font-family="Aptos,Aptos_MSFontService,sans-serif" font-style="italic" font-weight="400" font-size="61" transform="matrix(1 0 0 1 1866.39 990)">i+1</text><text fill="#BFBFBF" font-family="Aptos,Aptos_MSFontService,sans-serif" font-style="italic" font-weight="400" font-size="92" transform="matrix(1 0 0 1 1277.61 561)">c</text><text fill="#BFBFBF" font-family="Aptos,Aptos_MSFontService,sans-serif" font-style="italic" font-weight="400" font-size="61" transform="matrix(1 0 0 1 1326.31 583)">i+2</text><path d="M1332.54 1033.31 1361.5 1058.97 1387.17 1030.01 1403.77 1044.72 1378.1 1073.68 1407.07 1099.34 1392.36 1115.94 1363.4 1090.28 1337.73 1119.24 1321.13 1104.53 1346.8 1075.57 1317.83 1049.91Z" fill="#FF9200" fill-rule="evenodd"/><path d="M961 1679C961 1658.01 978.237 1641 999.5 1641 1020.76 1641 1038 1658.01 1038 1679 1038 1699.99 1020.76 1717 999.5 1717 978.237 1717 961 1699.99 961 1679Z" fill="#BFBFBF" fill-rule="evenodd"/><path d="M0.0644506-4.58288 453.053 1.78764 452.924 10.9534-0.0644506 4.58288ZM414.346-21.0988 462.424 6.50323 413.588 32.7423C411.359 33.9404 408.58 33.104 407.382 30.8742 406.184 28.6443 407.02 25.8655 409.25 24.6674L450.818 2.33305 450.705 10.3454 409.782-13.1491C407.586-14.4094 406.828-17.2107 408.089-19.4059 409.349-21.6012 412.15-22.3591 414.346-21.0988Z" transform="matrix(1 0 0 -1 1750.5 1912)"/><path d="M4.08334-2.08166 55.6429 99.0564 47.4762 103.22-4.08334 2.08166ZM57.8217 54.143 55.8459 109.546 9.84935 78.599C7.74916 77.1859 7.1921 74.3379 8.60514 72.2377 10.0182 70.1375 12.8662 69.5804 14.9664 70.9935L54.1181 97.3352 46.9791 100.975 48.6608 53.8163C48.751 51.2866 50.8749 49.309 53.4046 49.3992 55.9343 49.4894 57.9119 51.6133 57.8217 54.143Z" fill="#7F7F7F" transform="matrix(1 0 0 -1 1700.5 2054.05)"/><path d="M1755.37 1912.22 1457.92 1808.93 1460.92 1800.27 1758.38 1903.56ZM1487.45 1842.83 1450.5 1801.5 1505.12 1791.97C1507.61 1791.53 1509.98 1793.2 1510.42 1795.69 1510.85 1798.19 1509.19 1800.56 1506.69 1801L1460.21 1809.11 1462.84 1801.54 1494.29 1836.72C1495.97 1838.61 1495.81 1841.51 1493.92 1843.19 1492.04 1844.88 1489.14 1844.72 1487.45 1842.83Z" fill="#7F7F7F"/><path d="M1459.54 1798.28 1038.71 1704.04 1040.72 1695.09 1461.55 1789.33ZM1071.91 1734.36 1030.5 1697.5 1083.68 1681.82C1086.11 1681.1 1088.65 1682.49 1089.37 1684.92 1090.09 1687.35 1088.7 1689.89 1086.27 1690.61L1041.01 1703.96 1042.76 1696.14 1078.01 1727.52C1079.9 1729.2 1080.07 1732.1 1078.38 1733.99 1076.7 1735.88 1073.8 1736.05 1071.91 1734.36Z" fill="#7F7F7F"/><path d="M1656 2064.5C1656 2043.24 1673.01 2026 1694 2026 1714.99 2026 1732 2043.24 1732 2064.5 1732 2085.76 1714.99 2103 1694 2103 1673.01 2103 1656 2085.76 1656 2064.5Z" fill="#BFBFBF" fill-rule="evenodd"/><path d="M1735 1909.5C1735 1888.24 1752.24 1871 1773.5 1871 1794.76 1871 1812 1888.24 1812 1909.5 1812 1930.76 1794.76 1948 1773.5 1948 1752.24 1948 1735 1930.76 1735 1909.5Z" fill="#BFBFBF" fill-rule="evenodd"/><text font-family="Aptos,Aptos_MSFontService,sans-serif" font-weight="700" font-size="92" transform="matrix(1 0 0 1 1966.18 1855)">D</text><text font-family="Aptos,Aptos_MSFontService,sans-serif" font-weight="700" font-size="61" transform="matrix(1 0 0 1 2030.92 1877)">1</text><text font-family="Aptos,Aptos_MSFontService,sans-serif" font-weight="700" font-size="92" transform="matrix(1 0 0 1 1502.2 1730)">D</text><text font-family="Aptos,Aptos_MSFontService,sans-serif" font-weight="700" font-size="61" transform="matrix(1 0 0 1 1566.93 1752)">2</text><path d="M1433.5 1784.92 1537.26 1784.92 1537.26 1794.08 1433.5 1794.08ZM1498.24 1762.58 1546.7 1789.5 1498.24 1816.42C1496.03 1817.65 1493.24 1816.86 1492.01 1814.64 1490.78 1812.43 1491.57 1809.64 1493.79 1808.41L1535.04 1785.49 1535.04 1793.51 1493.79 1770.59C1491.57 1769.36 1490.78 1766.57 1492.01 1764.36 1493.24 1762.15 1496.03 1761.35 1498.24 1762.58Z"/><path d="M1400 1789.5C1400 1768.24 1417.01 1751 1438 1751 1458.99 1751 1476 1768.24 1476 1789.5 1476 1810.76 1458.99 1828 1438 1828 1417.01 1828 1400 1810.76 1400 1789.5Z" fill="#BFBFBF" fill-rule="evenodd"/><path d="M1364.5 1909.5 1736.61 1914.19" stroke="#000000" stroke-width="9.16667" stroke-linecap="square" stroke-miterlimit="8" stroke-dasharray="27.5 9.16667" fill="none" fill-rule="evenodd"/><path d="M1333.85 1868 1362.81 1893.66 1388.48 1864.7 1405.08 1879.4 1379.41 1908.37 1408.38 1934.03 1393.67 1950.63 1364.7 1924.97 1339.04 1953.93 1322.44 1939.22 1348.1 1910.26 1319.14 1884.6Z" fill="#FF9200" fill-rule="evenodd"/><text fill="#FF9200" font-family="Aptos,Aptos_MSFontService,sans-serif" font-style="italic" font-weight="700" font-size="110" transform="matrix(1 0 0 1 1102.27 1204)">origin</text><path d="M660.5 1536.5 2356.63 1546.96" stroke="#A6A6A6" stroke-width="3.4375" stroke-miterlimit="8" stroke-dasharray="27.5 10.3125" fill="none" fill-rule="evenodd"/><path d="M726.599 1572.68 724.071 1575.99 721.263 1578.94 718.289 1581.4 715.163 1583.35 711.908 1584.77 708.558 1585.64 705.158 1585.95 701.763 1585.69 698.425 1584.87 695.19 1583.52 692.089 1581.66 689.146 1579.32 686.375 1576.51 683.789 1573.25 681.399 1569.55 679.188 1565.36 675.69 1556.31 673.368 1546.53 672.209 1536.38 672.185 1526.11 673.28 1516.02 675.487 1506.36 678.818 1497.4 683.255 1489.52 685.929 1486.01 688.737 1483.06 691.711 1480.6 694.837 1478.65 698.092 1477.23 701.442 1476.36 704.842 1476.05 708.237 1476.31 711.575 1477.13 714.81 1478.48 717.911 1480.34 720.854 1482.68 723.625 1485.49 726.379 1488.96 729.487 1495.96 723.204 1498.75 720.273 1492.15 720.722 1492.89 718.355 1489.91 718.601 1490.18 716.105 1487.65 716.41 1487.93 713.806 1485.86 714.179 1486.11 711.488 1484.5 711.931 1484.72 709.173 1483.57 709.681 1483.74 706.878 1483.05 707.432 1483.14 704.604 1482.93 705.176 1482.92 702.344 1483.18 702.9 1483.08 700.085 1483.82 700.594 1483.64 697.818 1484.85 698.261 1484.62 695.543 1486.31 695.915 1486.04 693.276 1488.23 693.578 1487.94 691.041 1490.61 691.28 1490.33 688.864 1493.5 689.128 1493.1 684.941 1500.54 685.167 1500.05 682.01 1508.54 682.139 1508.11 680.027 1517.35 680.093 1516.96 679.041 1526.67 679.061 1526.29 679.084 1536.17 679.062 1535.79 680.176 1545.55 680.105 1545.15 682.325 1554.5 682.187 1554.05 685.529 1562.7 685.363 1562.33 687.409 1566.21 687.256 1565.95 689.473 1569.38 689.278 1569.11 691.645 1572.09 691.399 1571.82 693.895 1574.35 693.59 1574.07 696.194 1576.14 695.821 1575.89 698.512 1577.5 698.069 1577.28 700.827 1578.43 700.319 1578.26 703.122 1578.95 702.568 1578.86 705.396 1579.07 704.824 1579.08 707.656 1578.82 707.1 1578.92 709.915 1578.19 709.406 1578.36 712.182 1577.15 711.739 1577.38 714.457 1575.69 714.085 1575.96 716.724 1573.77 716.422 1574.06 718.959 1571.39 718.72 1571.67 721.136 1568.5ZM737.899 1488.6 733.696 1519.06 711.852 1497.42Z" fill="#A6A6A6"/></g></svg>