<svg width="1073" height="1099" xmlns="http://www.w3.org/2000/svg" xmlns:xlink="http://www.w3.org/1999/xlink" xml:space="preserve" overflow="hidden"><g transform="translate(-868 -813)"><path d="M1242 1447 1260 1454.79" stroke="#000000" stroke-width="2.29167" stroke-miterlimit="8" fill="none" fill-rule="evenodd"/><path d="M0 0 9.19012 18.2298" stroke="#000000" stroke-width="2.29167" stroke-miterlimit="8" fill="none" fill-rule="evenodd" transform="matrix(-1 0 0 1 1268.19 1437)"/><path d="M869.811 1252.65C888.989 1206.99 1064.39 1240.59 1261.58 1327.7 1442.47 1407.6 1581.62 1506.2 1585.5 1557.21L1226.85 1410.36Z" fill="#D9D9D9" fill-rule="evenodd" fill-opacity="0.788235"/><text fill="#7F7F7F" font-family="Aptos,Aptos_MSFontService,sans-serif" font-weight="700" font-size="92" transform="matrix(1 0 0 1 1385.7 1831)">ref_axis</text><text fill="#7F7F7F" font-family="Aptos,Aptos_MSFontService,sans-serif" font-weight="700" font-size="110" transform="matrix(1 0 0 1 1024.96 1771)">G</text><path d="M1316 1319.5C1316 1298.24 1333.01 1281 1354 1281 1374.99 1281 1392 1298.24 1392 1319.5 1392 1340.76 1374.99 1358 1354 1358 1333.01 1358 1316 1340.76 1316 1319.5Z" fill="#BFBFBF" fill-rule="evenodd"/><path d="M963 1117.5C963 1096.24 980.013 1079 1001 1079 1021.99 1079 1039 1096.24 1039 1117.5 1039 1138.76 1021.99 1156 1001 1156 980.013 1156 963 1138.76 963 1117.5Z" fill="#BFBFBF" fill-rule="evenodd"/><path d="M1175 1044C1175 1023.01 1192.24 1006 1213.5 1006 1234.76 1006 1252 1023.01 1252 1044 1252 1064.99 1234.76 1082 1213.5 1082 1192.24 1082 1175 1064.99 1175 1044Z" fill="#BFBFBF" fill-rule="evenodd"/><path d="M1531 1004C1531 983.013 1548.24 966 1569.5 966 1590.76 966 1608 983.013 1608 1004 1608 1024.99 1590.76 1042 1569.5 1042 1548.24 1042 1531 1024.99 1531 1004Z" fill="#BFBFBF" fill-rule="evenodd"/><path d="M1534.53 983.29 1477.5 935.5" stroke="#BFBFBF" stroke-width="4.58333" stroke-miterlimit="8" fill="none" fill-rule="evenodd"/><path d="M1208.5 1534.5 1581.6 1558.98" stroke="#000000" stroke-width="4.58333" stroke-linecap="square" stroke-miterlimit="8" stroke-dasharray="13.75 4.58333" fill="none" fill-rule="evenodd"/><path d="M0 0 68.5793 65.1746" stroke="#BFBFBF" stroke-width="4.58333" stroke-miterlimit="8" fill="none" fill-rule="evenodd" transform="matrix(1 0 0 -1 1266.5 1396.67)"/><path d="M1028.5 1133.5 1330.83 1230.59" stroke="#BFBFBF" stroke-width="4.58333" stroke-miterlimit="8" fill="none" fill-rule="evenodd"/><path d="M1252.5 1044.5 1407.14 1083.8" stroke="#BFBFBF" stroke-width="4.58333" stroke-miterlimit="8" fill="none" fill-rule="evenodd"/><path d="M7.24752-3.43617 424.491 876.61 409.996 883.482-7.24752 3.43617ZM430.561 798.155 424.32 894.971 345.415 838.524C341.812 835.947 340.981 830.937 343.558 827.334 346.135 823.731 351.145 822.9 354.748 825.477L421.911 873.524 409.24 879.532 414.552 797.123C414.837 792.702 418.652 789.35 423.073 789.635 427.493 789.92 430.846 793.734 430.561 798.155Z" fill="#7F7F7F" transform="matrix(-1 0 0 1 1537.32 817)"/><path d="M1581 1562.5C1581 1541.24 1598.24 1524 1619.5 1524 1640.76 1524 1658 1541.24 1658 1562.5 1658 1583.76 1640.76 1601 1619.5 1601 1598.24 1601 1581 1583.76 1581 1562.5Z" fill="#BFBFBF" fill-rule="evenodd"/><path d="M1658.55 1558.21 1864.09 1562.75 1863.99 1567.33 1658.45 1562.79ZM1824.46 1539.24 1868.76 1565.14 1823.36 1589.07C1822.24 1589.66 1820.85 1589.23 1820.26 1588.11 1819.67 1586.99 1820.1 1585.6 1821.22 1585.01L1862.97 1563.01 1862.88 1567.02 1822.15 1543.2C1821.05 1542.56 1820.69 1541.15 1821.33 1540.06 1821.96 1538.97 1823.37 1538.6 1824.46 1539.24Z"/><text font-family="Aptos,Aptos_MSFontService,sans-serif" font-weight="700" font-size="110" transform="matrix(1 0 0 1 1779.7 1521)">D</text><text font-family="Aptos,Aptos_MSFontService,sans-serif" font-weight="700" font-size="73" transform="matrix(1 0 0 1 1857.61 1548)">1</text><path d="M1581.62 1554.79C1585.52 1589.76 1526.67 1596.91 1425.62 1573.76L1224.37 1409.61Z" fill="#D9D9D9" fill-rule="evenodd" fill-opacity="0.788235"/><path d="M1261.16 1426.23 1574.1 1547.76 1570.78 1556.3 1257.84 1434.77ZM1545.81 1512.81 1581.24 1555.45 1526.32 1563C1523.81 1563.35 1521.5 1561.59 1521.15 1559.08 1520.81 1556.58 1522.56 1554.26 1525.07 1553.92L1571.82 1547.49 1568.92 1554.96 1538.76 1518.66C1537.14 1516.72 1537.41 1513.83 1539.36 1512.21 1541.3 1510.59 1544.19 1510.86 1545.81 1512.81Z" fill="#FF9200"/><text fill="#FF9200" font-family="Aptos,Aptos_MSFontService,sans-serif" font-style="italic" font-weight="700" font-size="165" transform="matrix(1 0 0 1 1456.49 1653)">α</text><path d="M1475.79 1537.03 1470.8 1543.67 1463.44 1550.42 1455.62 1556.41 1447.34 1561.64 1438.76 1565.96 1430.42 1569.05 1426.44 1558.31 1434.48 1555.33 1433.89 1555.59 1441.93 1551.54 1441.45 1551.81 1449.28 1546.86 1448.86 1547.16 1456.27 1541.48 1455.88 1541.81 1462.67 1535.58 1461.96 1536.36 1466.64 1530.15ZM1458.55 1531.68 1481.1 1519.53 1477.29 1544.87Z" fill="#FF9200"/><path d="M1297.07 817.114 1378.31 1779.63 1369.18 1780.4 1287.93 817.885ZM1397.29 1738.85 1374.54 1789.4 1343.63 1743.38C1342.22 1741.28 1342.78 1738.43 1344.88 1737.02 1346.98 1735.61 1349.83 1736.17 1351.24 1738.27L1377.55 1777.45 1369.56 1778.12 1388.93 1735.09C1389.97 1732.78 1392.68 1731.75 1394.99 1732.79 1397.3 1733.83 1398.33 1736.54 1397.29 1738.85Z" fill="#7F7F7F"/><path d="M1431.19 1575.93C1265.9 1537.36 1041.53 1432.32 930.043 1341.32 883.266 1303.14 862.026 1271.76 869.954 1252.55L1229.33 1411.16Z" fill="#D9D9D9" fill-rule="evenodd" fill-opacity="0.760784"/><path d="M1020 1401 1468.19 1439.25" stroke="#7F7F7F" stroke-width="5.72917" stroke-miterlimit="8" stroke-dasharray="22.9167 17.1875" fill="none" fill-rule="evenodd"/><path d="M1050 1254 1442.84 1575.69" stroke="#FF9200" stroke-width="5.72917" stroke-miterlimit="8" stroke-dasharray="22.9167 17.1875" fill="none" fill-rule="evenodd"/><text fill="#BFBFBF" font-family="Aptos,Aptos_MSFontService,sans-serif" font-style="italic" font-weight="400" font-size="92" transform="matrix(1 0 0 1 1653.12 1644)">c</text><text fill="#BFBFBF" font-family="Aptos,Aptos_MSFontService,sans-serif" font-style="italic" font-weight="400" font-size="61" transform="matrix(1 0 0 1 1701.82 1666)">i+1</text><path d="M1246 1386 1254.63 1392.32" stroke="#000000" stroke-width="2.29167" stroke-miterlimit="8" fill="none" fill-rule="evenodd"/><path d="M0 0 9.29659 20.2327" stroke="#000000" stroke-width="2.29167" stroke-miterlimit="8" fill="none" fill-rule="evenodd" transform="matrix(-1 0 0 1 1247.3 1385)"/></g></svg>