<svg width="1301" height="1397" xmlns="http://www.w3.org/2000/svg" xmlns:xlink="http://www.w3.org/1999/xlink" xml:space="preserve" overflow="hidden"><g transform="translate(-960 -82)"><path d="M963.5 1052.5C963.5 818.883 1152.88 629.5 1386.5 629.5 1620.12 629.5 1809.5 818.883 1809.5 1052.5 1809.5 1286.12 1620.12 1475.5 1386.5 1475.5 1152.88 1475.5 963.5 1286.12 963.5 1052.5Z" stroke="#D9D9D9" stroke-width="6.875" stroke-miterlimit="8" fill="none" fill-rule="evenodd"/><path d="M4.50926-0.820677 95.4085 498.631 86.39 500.273-4.50926 0.820677ZM110.4 456.239 92.5895 508.739 57.424 465.881C55.8183 463.924 56.103 461.036 58.0599 459.43 60.0168 457.825 62.9048 458.11 64.5105 460.066L94.4428 496.546 86.5592 497.981 101.719 453.294C102.533 450.897 105.135 449.613 107.532 450.427 109.929 451.24 111.213 453.842 110.4 456.239Z" transform="matrix(1 0 0 -1 1435.5 640.243)"/><path d="M1.77612-4.2252 421.188 172.08 417.636 180.531-1.77612 4.2252ZM393.867 136.362 428.109 179.961 373.001 186.001C370.484 186.277 368.221 184.461 367.945 181.944 367.669 179.428 369.486 177.165 372.002 176.889L418.909 171.748 415.804 179.135 386.658 142.024C385.094 140.033 385.441 137.152 387.431 135.589 389.422 134.025 392.303 134.371 393.867 136.362Z" transform="matrix(1 0 0 -1 1779.5 905.463)"/><path d="M0 0 428.113 179.963" stroke="#FF9200" stroke-width="11.4583" stroke-linecap="square" stroke-miterlimit="8" stroke-dasharray="34.375 11.4583" fill="none" fill-rule="evenodd" transform="matrix(1 0 0 -1 1354.5 1084.46)"/><path d="M0 0 82.7505 454.679" stroke="#FF9200" stroke-width="11.4583" stroke-linecap="square" stroke-miterlimit="8" stroke-dasharray="34.375 11.4583" fill="none" fill-rule="evenodd" transform="matrix(1 0 0 -1 1352.5 1084.18)"/><path d="M4.4842-0.948124 97.1448 437.294 88.1764 439.19-4.4842 0.948124ZM110.929 394.493 94.6129 447.476 58.2471 405.632C56.5866 403.721 56.7894 400.826 58.7 399.166 60.6106 397.505 63.5055 397.708 65.1659 399.619L96.12 435.236 88.2802 436.893 102.168 391.795C102.913 389.376 105.478 388.019 107.897 388.764 110.317 389.509 111.674 392.074 110.929 394.493Z" fill="#7F7F7F" transform="matrix(1 0 0 -1 1679.5 1384.98)"/><path d="M1794.35 933.141 1462.74 652.1 1468.66 645.107 1800.28 926.147ZM1478.07 694.374 1458.5 642.503 1512.88 653.296C1515.36 653.789 1516.98 656.201 1516.48 658.684 1515.99 661.167 1513.58 662.78 1511.1 662.287L1464.81 653.1 1469.99 646.987 1486.64 691.139C1487.54 693.508 1486.34 696.152 1483.97 697.045 1481.6 697.939 1478.96 696.743 1478.07 694.374Z" fill="#7F7F7F"/><path d="M2.25287-3.99143 413.065 227.882 408.559 235.865-2.25287 3.99143ZM390.062 189.245 419.031 236.512 363.594 236.138C361.063 236.121 359.025 234.055 359.042 231.524 359.059 228.993 361.125 226.955 363.656 226.972L410.843 227.29 406.905 234.269 382.246 194.036C380.923 191.877 381.601 189.056 383.759 187.733 385.917 186.41 388.739 187.087 390.062 189.245Z" fill="#7F7F7F" transform="matrix(-1 0 0 1 1450.53 623.5)"/><path d="M1.77612-4.2252 424.767 173.585 421.215 182.036-1.77612 4.2252ZM397.451 137.869 431.693 181.468 376.585 187.508C374.069 187.784 371.805 185.968 371.53 183.452 371.254 180.935 373.07 178.672 375.586 178.396L422.494 173.255 419.388 180.642 390.242 143.531C388.679 141.54 389.025 138.659 391.016 137.096 393.007 135.532 395.888 135.878 397.451 137.869Z" transform="matrix(1 0 0 -1 1779.5 905.97)"/><path d="M1738 908C1738 887.013 1755.01 870 1776 870 1796.99 870 1814 887.013 1814 908 1814 928.987 1796.99 946 1776 946 1755.01 946 1738 928.987 1738 908Z" fill="#BFBFBF" fill-rule="evenodd"/><path d="M1399 626.5C1399 605.237 1416.24 588 1437.5 588 1458.76 588 1476 605.237 1476 626.5 1476 647.763 1458.76 665 1437.5 665 1416.24 665 1399 647.763 1399 626.5Z" fill="#BFBFBF" fill-rule="evenodd"/><path d="M964 869.5C964 848.237 981.013 831 1002 831 1022.99 831 1040 848.237 1040 869.5 1040 890.763 1022.99 908 1002 908 981.013 908 964 890.763 964 869.5Z" fill="#BFBFBF" fill-rule="evenodd"/><path d="M1647 1349C1647 1328.01 1664.24 1311 1685.5 1311 1706.76 1311 1724 1328.01 1724 1349 1724 1369.99 1706.76 1387 1685.5 1387 1664.24 1387 1647 1369.99 1647 1349Z" fill="#BFBFBF" fill-rule="evenodd"/><text fill="#FF9200" font-family="Aptos,Aptos_MSFontService,sans-serif" font-style="italic" font-weight="700" font-size="147" transform="matrix(1 0 0 1 1393.46 1014)">θ</text><text font-family="Aptos,Aptos_MSFontService,sans-serif" font-weight="700" font-size="92" transform="matrix(1 0 0 1 1498.55 473)">D</text><text font-family="Aptos,Aptos_MSFontService,sans-serif" font-weight="700" font-size="61" transform="matrix(1 0 0 1 1563.29 495)">2</text><text font-family="Aptos,Aptos_MSFontService,sans-serif" font-weight="700" font-size="92" transform="matrix(1 0 0 1 1961.24 933)">D</text><text font-family="Aptos,Aptos_MSFontService,sans-serif" font-weight="700" font-size="61" transform="matrix(1 0 0 1 2025.98 955)">1</text><text fill="#BFBFBF" font-family="Aptos,Aptos_MSFontService,sans-serif" font-style="italic" font-weight="400" font-size="92" transform="matrix(1 0 0 1 1817.69 968)">c</text><text fill="#BFBFBF" font-family="Aptos,Aptos_MSFontService,sans-serif" font-style="italic" font-weight="400" font-size="61" transform="matrix(1 0 0 1 1866.39 990)">i+1</text><text fill="#BFBFBF" font-family="Aptos,Aptos_MSFontService,sans-serif" font-style="italic" font-weight="400" font-size="92" transform="matrix(1 0 0 1 1277.61 561)">c</text><text fill="#BFBFBF" font-family="Aptos,Aptos_MSFontService,sans-serif" font-style="italic" font-weight="400" font-size="61" transform="matrix(1 0 0 1 1326.31 583)">i+2</text></g></svg>