<svg width="1699" height="2329" xmlns="http://www.w3.org/2000/svg" xmlns:xlink="http://www.w3.org/1999/xlink" xml:space="preserve" overflow="hidden"><g transform="translate(-609 -82)"><path d="M963.5 1052.5C963.5 818.883 1152.88 629.5 1386.5 629.5 1620.12 629.5 1809.5 818.883 1809.5 1052.5 1809.5 1286.12 1620.12 1475.5 1386.5 1475.5 1152.88 1475.5 963.5 1286.12 963.5 1052.5Z" stroke="#D9D9D9" stroke-width="6.875" stroke-miterlimit="8" fill="none" fill-rule="evenodd"/><path d="M4.4842-0.948124 97.1448 437.294 88.1764 439.19-4.4842 0.948124ZM110.929 394.493 94.6129 447.476 58.2471 405.632C56.5866 403.721 56.7894 400.826 58.7 399.166 60.6106 397.505 63.5055 397.708 65.1659 399.619L96.12 435.236 88.2802 436.893 102.168 391.795C102.913 389.376 105.478 388.019 107.897 388.764 110.317 389.509 111.674 392.074 110.929 394.493Z" fill="#7F7F7F" transform="matrix(1 0 0 -1 1679.5 1384.98)"/><path d="M1794.35 933.141 1462.74 652.1 1468.66 645.107 1800.28 926.147ZM1478.07 694.374 1458.5 642.503 1512.88 653.296C1515.36 653.789 1516.98 656.201 1516.48 658.684 1515.99 661.167 1513.58 662.78 1511.1 662.287L1464.81 653.1 1469.99 646.987 1486.64 691.139C1487.54 693.508 1486.34 696.152 1483.97 697.045 1481.6 697.939 1478.96 696.743 1478.07 694.374Z" fill="#7F7F7F"/><path d="M2.25287-3.99143 413.065 227.882 408.559 235.865-2.25287 3.99143ZM390.062 189.245 419.031 236.512 363.594 236.138C361.063 236.121 359.025 234.055 359.042 231.524 359.059 228.993 361.125 226.955 363.656 226.972L410.843 227.29 406.905 234.269 382.246 194.036C380.923 191.877 381.601 189.056 383.759 187.733 385.917 186.41 388.739 187.087 390.062 189.245Z" fill="#7F7F7F" transform="matrix(-1 0 0 1 1450.53 623.5)"/><path d="M4.50926-0.820677 95.4085 498.631 86.39 500.273-4.50926 0.820677ZM110.4 456.239 92.5895 508.739 57.424 465.881C55.8183 463.924 56.103 461.036 58.0599 459.43 60.0168 457.825 62.9048 458.11 64.5105 460.066L94.4428 496.546 86.5592 497.981 101.719 453.294C102.533 450.897 105.135 449.613 107.532 450.427 109.929 451.24 111.213 453.842 110.4 456.239Z" transform="matrix(1 0 0 -1 1435.5 640.243)"/><path d="M1.77612-4.2252 421.188 172.08 417.636 180.531-1.77612 4.2252ZM393.867 136.362 428.109 179.961 373.001 186.001C370.484 186.277 368.221 184.461 367.945 181.944 367.669 179.428 369.486 177.165 372.002 176.889L418.909 171.748 415.804 179.135 386.658 142.024C385.094 140.033 385.441 137.152 387.431 135.589 389.422 134.025 392.303 134.371 393.867 136.362Z" transform="matrix(1 0 0 -1 1779.5 905.463)"/><text font-family="Aptos,Aptos_MSFontService,sans-serif" font-weight="700" font-size="110" transform="matrix(1 0 0 1 1961.24 950)">D</text><text font-family="Aptos,Aptos_MSFontService,sans-serif" font-weight="700" font-size="73" transform="matrix(1 0 0 1 2039.16 977)">1</text><text font-family="Aptos,Aptos_MSFontService,sans-serif" font-weight="700" font-size="110" transform="matrix(1 0 0 1 1498.55 490)">D</text><text font-family="Aptos,Aptos_MSFontService,sans-serif" font-weight="700" font-size="73" transform="matrix(1 0 0 1 1576.46 517)">2</text><text fill="#7F7F7F" font-family="Aptos,Aptos_MSFontService,sans-serif" font-weight="700" font-size="110" transform="matrix(1 0 0 1 1742.48 1205)">B</text><text fill="#7F7F7F" font-family="Aptos,Aptos_MSFontService,sans-serif" font-weight="700" font-size="73" transform="matrix(1 0 0 1 1810.66 1232)">1</text><text fill="#7F7F7F" font-family="Aptos,Aptos_MSFontService,sans-serif" font-weight="700" font-size="110" transform="matrix(1 0 0 1 1601.19 748)">B</text><text fill="#7F7F7F" font-family="Aptos,Aptos_MSFontService,sans-serif" font-weight="700" font-size="73" transform="matrix(1 0 0 1 1669.37 775)">2</text><text fill="#7F7F7F" font-family="Aptos,Aptos_MSFontService,sans-serif" font-weight="700" font-size="110" transform="matrix(1 0 0 1 1105.3 710)">B</text><text fill="#7F7F7F" font-family="Aptos,Aptos_MSFontService,sans-serif" font-weight="700" font-size="73" transform="matrix(1 0 0 1 1173.48 737)">3</text><path d="M1738 908C1738 887.013 1755.01 870 1776 870 1796.99 870 1814 887.013 1814 908 1814 928.987 1796.99 946 1776 946 1755.01 946 1738 928.987 1738 908Z" fill="#BFBFBF" fill-rule="evenodd"/><path d="M1399 626.5C1399 605.237 1416.24 588 1437.5 588 1458.76 588 1476 605.237 1476 626.5 1476 647.763 1458.76 665 1437.5 665 1416.24 665 1399 647.763 1399 626.5Z" fill="#BFBFBF" fill-rule="evenodd"/><path d="M964 869.5C964 848.237 981.013 831 1002 831 1022.99 831 1040 848.237 1040 869.5 1040 890.763 1022.99 908 1002 908 981.013 908 964 890.763 964 869.5Z" fill="#BFBFBF" fill-rule="evenodd"/><path d="M1647 1349C1647 1328.01 1664.24 1311 1685.5 1311 1706.76 1311 1724 1328.01 1724 1349 1724 1369.99 1706.76 1387 1685.5 1387 1664.24 1387 1647 1369.99 1647 1349Z" fill="#BFBFBF" fill-rule="evenodd"/><text fill="#BFBFBF" font-family="Aptos,Aptos_MSFontService,sans-serif" font-style="italic" font-weight="400" font-size="92" transform="matrix(1 0 0 1 1705.02 1418)">c</text><text fill="#BFBFBF" font-family="Aptos,Aptos_MSFontService,sans-serif" font-style="italic" font-weight="400" font-size="61" transform="matrix(1 0 0 1 1753.71 1440)">i</text><text fill="#BFBFBF" font-family="Aptos,Aptos_MSFontService,sans-serif" font-style="italic" font-weight="400" font-size="92" transform="matrix(1 0 0 1 1817.69 968)">c</text><text fill="#BFBFBF" font-family="Aptos,Aptos_MSFontService,sans-serif" font-style="italic" font-weight="400" font-size="61" transform="matrix(1 0 0 1 1866.39 990)">i+1</text><text fill="#BFBFBF" font-family="Aptos,Aptos_MSFontService,sans-serif" font-style="italic" font-weight="400" font-size="92" transform="matrix(1 0 0 1 1277.61 561)">c</text><text fill="#BFBFBF" font-family="Aptos,Aptos_MSFontService,sans-serif" font-style="italic" font-weight="400" font-size="61" transform="matrix(1 0 0 1 1326.31 583)">i+2</text><text fill="#BFBFBF" font-family="Aptos,Aptos_MSFontService,sans-serif" font-style="italic" font-weight="400" font-size="92" transform="matrix(1 0 0 1 826.471 917)">c</text><text fill="#BFBFBF" font-family="Aptos,Aptos_MSFontService,sans-serif" font-style="italic" font-weight="400" font-size="61" transform="matrix(1 0 0 1 875.169 939)">i+3</text><path d="M961 1844C961 1823.01 978.237 1806 999.5 1806 1020.76 1806 1038 1823.01 1038 1844 1038 1864.99 1020.76 1882 999.5 1882 978.237 1882 961 1864.99 961 1844Z" fill="#BFBFBF" fill-rule="evenodd"/><path d="M0.0644506-4.58288 453.053 1.78764 452.924 10.9534-0.0644506 4.58288ZM414.346-21.0988 462.424 6.50323 413.588 32.7423C411.359 33.9404 408.58 33.104 407.382 30.8742 406.184 28.6443 407.02 25.8655 409.25 24.6674L450.818 2.33305 450.705 10.3454 409.782-13.1491C407.586-14.4094 406.828-17.2107 408.089-19.4059 409.349-21.6012 412.15-22.3591 414.346-21.0988Z" transform="matrix(1 0 0 -1 1750.5 2080)"/><path d="M4.08334-2.08166 55.6429 99.0564 47.4762 103.22-4.08334 2.08166ZM57.8217 54.143 55.8459 109.546 9.84935 78.599C7.74916 77.1859 7.1921 74.3379 8.60514 72.2377 10.0182 70.1375 12.8662 69.5804 14.9664 70.9935L54.1181 97.3352 46.9791 100.975 48.6608 53.8163C48.751 51.2866 50.8749 49.309 53.4046 49.3992 55.9343 49.4894 57.9119 51.6133 57.8217 54.143Z" fill="#7F7F7F" transform="matrix(1 0 0 -1 1700.5 2219.05)"/><path d="M1755.37 2077.22 1457.92 1973.93 1460.92 1965.27 1758.38 2068.56ZM1487.45 2007.83 1450.5 1966.5 1505.12 1956.97C1507.61 1956.53 1509.98 1958.2 1510.42 1960.69 1510.85 1963.19 1509.19 1965.56 1506.69 1966L1460.21 1974.11 1462.84 1966.54 1494.29 2001.72C1495.97 2003.61 1495.81 2006.51 1493.92 2008.2 1492.04 2009.88 1489.14 2009.72 1487.45 2007.83Z" fill="#7F7F7F"/><path d="M1459.54 1963.28 1038.71 1869.04 1040.72 1860.09 1461.55 1954.33ZM1071.91 1899.36 1030.5 1862.5 1083.68 1846.82C1086.11 1846.1 1088.65 1847.49 1089.37 1849.92 1090.09 1852.35 1088.7 1854.89 1086.27 1855.61L1041.01 1868.96 1042.76 1861.14 1078.01 1892.52C1079.9 1894.2 1080.07 1897.1 1078.38 1898.99 1076.7 1900.88 1073.8 1901.05 1071.91 1899.36Z" fill="#7F7F7F"/><path d="M1656 2229.5C1656 2208.24 1673.01 2191 1694 2191 1714.99 2191 1732 2208.24 1732 2229.5 1732 2250.76 1714.99 2268 1694 2268 1673.01 2268 1656 2250.76 1656 2229.5Z" fill="#BFBFBF" fill-rule="evenodd"/><path d="M1735 2074.5C1735 2053.24 1752.24 2036 1773.5 2036 1794.76 2036 1812 2053.24 1812 2074.5 1812 2095.76 1794.76 2113 1773.5 2113 1752.24 2113 1735 2095.76 1735 2074.5Z" fill="#BFBFBF" fill-rule="evenodd"/><text font-family="Aptos,Aptos_MSFontService,sans-serif" font-weight="700" font-size="110" transform="matrix(1 0 0 1 1966.18 2040)">D</text><text font-family="Aptos,Aptos_MSFontService,sans-serif" font-weight="700" font-size="73" transform="matrix(1 0 0 1 2044.1 2067)">1</text><text fill="#BFBFBF" font-family="Aptos,Aptos_MSFontService,sans-serif" font-style="italic" font-weight="400" font-size="92" transform="matrix(1 0 0 1 1700.13 2330)">c</text><text fill="#BFBFBF" font-family="Aptos,Aptos_MSFontService,sans-serif" font-style="italic" font-weight="400" font-size="61" transform="matrix(1 0 0 1 1748.83 2352)">i</text><text fill="#BFBFBF" font-family="Aptos,Aptos_MSFontService,sans-serif" font-style="italic" font-weight="400" font-size="92" transform="matrix(1 0 0 1 1815.13 2158)">c</text><text fill="#BFBFBF" font-family="Aptos,Aptos_MSFontService,sans-serif" font-style="italic" font-weight="400" font-size="61" transform="matrix(1 0 0 1 1863.83 2180)">i+1</text><text fill="#BFBFBF" font-family="Aptos,Aptos_MSFontService,sans-serif" font-style="italic" font-weight="400" font-size="92" transform="matrix(1 0 0 1 1338.22 1874)">c</text><text fill="#BFBFBF" font-family="Aptos,Aptos_MSFontService,sans-serif" font-style="italic" font-weight="400" font-size="61" transform="matrix(1 0 0 1 1386.92 1896)">i+2</text><text fill="#BFBFBF" font-family="Aptos,Aptos_MSFontService,sans-serif" font-style="italic" font-weight="400" font-size="92" transform="matrix(1 0 0 1 882.145 1774)">c</text><text fill="#BFBFBF" font-family="Aptos,Aptos_MSFontService,sans-serif" font-style="italic" font-weight="400" font-size="61" transform="matrix(1 0 0 1 930.843 1796)">i+3</text><path d="M609.5 1573.5 2305.63 1583.96" stroke="#A6A6A6" stroke-width="3.4375" stroke-miterlimit="8" stroke-dasharray="27.5 10.3125" fill="none" fill-rule="evenodd"/><path d="M726.726 1609.38 724.209 1612.74 721.413 1615.74 718.449 1618.24 715.331 1620.24 712.08 1621.7 708.731 1622.61 705.327 1622.95 701.925 1622.71 698.579 1621.92 695.335 1620.58 692.226 1618.72 689.274 1616.38 686.494 1613.57 683.899 1610.3 681.499 1606.58 679.278 1602.37 675.757 1593.27 673.41 1583.42 672.224 1573.18 672.172 1562.83 673.238 1552.63 675.418 1542.87 678.72 1533.81 683.131 1525.81 685.791 1522.26 688.587 1519.26 691.551 1516.76 694.669 1514.76 697.92 1513.3 701.269 1512.39 704.673 1512.05 708.075 1512.29 711.421 1513.08 714.665 1514.42 717.774 1516.28 720.726 1518.62 723.506 1521.43 726.261 1524.9 729.645 1532.38 723.381 1535.21 720.173 1528.13 720.612 1528.85 718.237 1525.85 718.484 1526.13 715.981 1523.6 716.289 1523.88 713.68 1521.8 714.056 1522.06 711.361 1520.46 711.809 1520.68 709.048 1519.54 709.563 1519.71 706.758 1519.04 707.319 1519.12 704.49 1518.93 705.068 1518.92 702.236 1519.2 702.795 1519.1 699.982 1519.86 700.492 1519.68 697.718 1520.93 698.159 1520.69 695.446 1522.42 695.814 1522.15 693.181 1524.38 693.479 1524.1 690.948 1526.81 691.184 1526.53 688.776 1529.75 689.035 1529.35 684.868 1536.9 685.088 1536.41 681.954 1545.01 682.079 1544.58 679.992 1553.93 680.055 1553.54 679.03 1563.35 679.048 1562.98 679.098 1572.96 679.076 1572.58 680.216 1582.43 680.145 1582.02 682.391 1591.45 682.253 1591 685.618 1599.71 685.453 1599.34 687.509 1603.24 687.356 1602.98 689.583 1606.43 689.388 1606.15 691.763 1609.15 691.516 1608.87 694.019 1611.4 693.711 1611.12 696.32 1613.2 695.944 1612.94 698.639 1614.54 698.191 1614.32 700.952 1615.46 700.437 1615.29 703.242 1615.96 702.681 1615.88 705.51 1616.07 704.932 1616.08 707.764 1615.8 707.205 1615.9 710.018 1615.14 709.508 1615.32 712.282 1614.07 711.841 1614.31 714.554 1612.58 714.186 1612.85 716.819 1610.62 716.521 1610.9 719.052 1608.19 718.816 1608.47 721.224 1605.25ZM738.127 1525.13 733.711 1555.55 712.019 1533.76Z" fill="#A6A6A6"/><path d="M0.712113-3.36293 304.912 61.0525 303.488 67.7784-0.712113 3.36293ZM270.848 30.8566 311.125 65.8817 260.108 81.5752C258.293 82.1333 256.37 81.1149 255.812 79.3003 255.254 77.4857 256.272 75.5622 258.087 75.004L303.189 61.1298 301.944 67.0093 266.336 36.0444C264.904 34.7986 264.752 32.6274 265.998 31.1948 267.244 29.7623 269.415 29.6108 270.848 30.8566Z" fill="#D9D9D9" transform="matrix(1 0 0 -1 1343.5 1426.38)"/><path d="M1016.9 903.019 1062.96 1228.94 1056.15 1229.91 1010.1 903.981ZM1079.68 1186.61 1060.54 1236.43 1028.35 1193.86C1027.2 1192.35 1027.5 1190.19 1029.02 1189.05 1030.53 1187.9 1032.69 1188.2 1033.83 1189.71L1062.3 1227.35 1056.35 1228.19 1073.27 1184.14C1073.95 1182.37 1075.93 1181.49 1077.71 1182.17 1079.48 1182.85 1080.36 1184.84 1079.68 1186.61Z" fill="#D9D9D9"/><path d="M0.921566-3.31166 309.679 82.6091 307.836 89.2324-0.921566 3.31166ZM277.577 50.3372 315.578 87.8187 263.678 100.283C261.832 100.726 259.976 99.5888 259.533 97.7428 259.09 95.8968 260.227 94.0409 262.073 93.5976L307.957 82.5787 306.345 88.3685 272.749 55.2319C271.398 53.8988 271.383 51.7223 272.716 50.3707 274.049 49.019 276.225 49.004 277.577 50.3372Z" fill="#D9D9D9" transform="matrix(1 0 0 -1 1343.5 2331.32)"/><path d="M2.00319-2.7935 72.6985 47.9012 68.6921 53.4882-2.00319 2.7935ZM53.6357 6.5641 76.4476 54.8196 23.4243 48.6947C21.5384 48.4769 20.1861 46.7714 20.404 44.8855 20.6218 42.9995 22.3273 41.6473 24.2132 41.8651L71.0898 47.28 67.5876 52.1639 47.4202 9.50235C46.6088 7.78599 47.3424 5.73685 49.0588 4.92548 50.7752 4.1141 52.8243 4.84774 53.6357 6.5641Z" fill="#D9D9D9" transform="matrix(1 0 0 -1 1031.5 1822.32)"/><text font-family="Aptos,Aptos_MSFontService,sans-serif" font-weight="700" font-size="110" transform="matrix(1 0 0 1 1502.2 1912)">D</text><text font-family="Aptos,Aptos_MSFontService,sans-serif" font-weight="700" font-size="73" transform="matrix(1 0 0 1 1580.11 1939)">2</text><path d="M1433.5 1949.92 1537.26 1949.92 1537.26 1959.08 1433.5 1959.08ZM1498.24 1927.58 1546.7 1954.5 1498.24 1981.42C1496.03 1982.65 1493.24 1981.86 1492.01 1979.64 1490.78 1977.43 1491.57 1974.64 1493.79 1973.41L1535.04 1950.49 1535.04 1958.51 1493.79 1935.59C1491.57 1934.36 1490.78 1931.57 1492.01 1929.36 1493.24 1927.15 1496.03 1926.35 1498.24 1927.58Z"/><path d="M1400 1954.5C1400 1933.24 1417.01 1916 1438 1916 1458.99 1916 1476 1933.24 1476 1954.5 1476 1975.76 1458.99 1993 1438 1993 1417.01 1993 1400 1975.76 1400 1954.5Z" fill="#BFBFBF" fill-rule="evenodd"/></g></svg>